<svg width="189" height="188" viewBox="0 0 189 188" fill="none" xmlns="http://www.w3.org/2000/svg">
<path d="M187.761 1.04501L188 1.33621C187.881 1.48181 184.537 0.899406 184.417 1.04501C184.417 1.04501 184.716 1.33621 184.656 1.33621C184.537 1.48181 181.133 0.826606 181.014 1.04501C181.014 1.04501 181.312 1.33621 181.253 1.33621C181.133 1.48181 177.73 0.826606 177.61 1.04501C177.61 1.04501 177.909 1.33621 177.849 1.33621C177.73 1.48181 174.326 0.826606 174.207 1.04501C174.207 1.04501 174.505 1.33621 174.446 1.33621C174.326 1.48181 170.923 0.826606 170.803 1.04501C170.803 1.04501 171.102 1.33621 171.042 1.33621C170.923 1.48181 167.519 0.826606 167.4 1.04501C167.4 1.04501 167.698 1.33621 167.639 1.33621C167.519 1.48181 164.116 0.826606 163.996 1.04501C163.996 1.04501 164.295 1.33621 164.235 1.33621C164.116 1.48181 160.712 0.826606 160.593 1.04501C160.593 1.04501 160.891 1.33621 160.831 1.33621C160.712 1.48181 157.309 0.826606 157.189 1.04501C157.189 1.04501 157.488 1.33621 157.428 1.33621C157.308 1.48181 153.905 0.826606 153.786 1.04501C153.786 1.04501 154.084 1.33621 154.024 1.33621C153.905 1.48181 150.501 0.826606 150.382 1.04501C150.382 1.04501 150.681 1.33621 150.621 1.33621C150.501 1.48181 147.098 0.826606 146.978 1.04501C146.978 1.04501 147.277 1.33621 147.217 1.33621C147.098 1.48181 143.694 0.826606 143.575 1.04501C143.575 1.04501 143.874 1.33621 143.814 1.33621C143.694 1.48181 140.291 0.826606 140.171 1.04501C140.171 1.04501 140.47 1.33621 140.41 1.33621C140.291 1.48181 136.887 0.826606 136.768 1.04501C136.768 1.04501 137.066 1.33621 137.007 1.33621C136.887 1.48181 133.484 0.826606 133.364 1.04501C133.364 1.04501 133.663 1.33621 133.603 1.33621C133.484 1.48181 130.08 0.826606 129.961 1.04501C129.961 1.04501 130.259 1.33621 130.2 1.33621C130.08 1.48181 126.677 0.826606 126.557 1.04501C126.557 1.04501 126.856 1.33621 126.796 1.33621C126.677 1.48181 123.273 0.826606 123.154 1.04501C123.154 1.04501 123.452 1.33621 123.452 1.40901C123.333 1.55461 119.929 0.899406 119.81 1.04501C119.81 1.04501 120.109 1.33621 120.109 1.40901C119.989 1.55461 116.586 0.899406 116.466 1.04501C116.466 1.04501 116.765 1.33621 116.765 1.40901C116.645 1.55461 113.242 0.899406 113.122 1.04501C113.122 1.04501 113.421 1.33621 113.421 1.40901C113.301 1.55461 109.898 0.899406 109.778 1.04501C109.778 1.04501 110.077 1.33621 110.077 1.40901C109.958 1.55461 106.554 0.899406 106.435 1.04501C106.435 1.04501 106.733 1.33621 106.733 1.40901C106.614 1.55461 103.21 0.899406 103.091 1.04501C103.091 1.04501 103.389 1.33621 103.389 1.40901C103.27 1.55461 99.8664 0.899406 99.747 1.04501C99.747 1.04501 100.046 1.33621 100.046 1.40901C99.9262 1.55461 96.5226 0.899406 96.4032 1.04501C96.4032 1.04501 96.7018 1.33621 96.7018 1.40901C96.5823 1.55461 93.1788 0.899406 93.0594 1.04501C93.0594 1.04501 93.3579 1.33621 93.3579 1.40901C93.2385 1.55461 89.835 0.899406 89.7156 1.04501C89.7156 1.04501 90.0141 1.33621 90.0141 1.40901C89.8947 1.55461 86.4912 0.899406 86.3718 1.04501C86.3718 1.04501 86.6703 1.33621 86.6703 1.40901C86.5509 1.55461 83.1473 0.899406 83.0279 1.04501C83.0279 1.04501 83.3265 1.33621 83.3265 1.40901C83.2071 1.55461 79.8035 0.899406 79.6841 1.04501C79.6841 1.04501 79.9827 1.33621 79.9827 1.40901C79.8632 1.55461 76.4597 0.899406 76.3403 1.04501C76.3403 1.04501 76.6388 1.33621 76.6388 1.40901C76.5194 1.55461 73.1159 0.899406 72.9965 1.04501C72.9965 1.04501 73.295 1.33621 73.295 1.40901C73.1756 1.55461 69.7721 0.899406 69.6526 1.04501C69.6526 1.04501 69.9512 1.33621 69.9512 1.40901C69.8318 1.55461 66.4282 0.899406 66.3088 1.04501C66.3088 1.04501 66.6074 1.33621 66.6074 1.40901C66.488 1.55461 63.0844 0.899406 62.965 1.04501C62.965 1.04501 63.2636 1.33621 63.2636 1.40901C63.1441 1.55461 59.7406 0.899406 59.6212 1.04501C59.6212 1.04501 59.9197 1.33621 59.9197 1.40901C59.8003 1.55461 56.3968 0.899406 56.2774 1.04501C56.2774 1.04501 56.5759 1.33621 56.5759 1.40901C56.4565 1.55461 53.053 0.899406 52.9335 1.04501C52.9335 1.04501 53.2321 1.33621 53.2321 1.40901C53.1127 1.55461 49.7091 0.899406 49.5897 1.04501C49.5897 1.04501 49.8883 1.33621 49.8883 1.40901C49.7689 1.55461 46.3653 0.899406 46.2459 1.04501C46.2459 1.04501 46.5445 1.33621 46.5445 1.40901C46.425 1.55461 43.0215 0.899406 42.9021 1.04501C42.9021 1.04501 43.2006 1.33621 43.2006 1.40901C43.0812 1.55461 39.6777 0.899406 39.5583 1.04501C39.5583 1.04501 39.8568 1.33621 39.8568 1.40901C39.7374 1.55461 36.3339 0.899406 36.2144 1.04501C36.2144 1.04501 36.513 1.33621 36.513 1.40901C36.3936 1.55461 32.99 0.899406 32.8706 1.04501C32.8706 1.04501 33.1692 1.33621 33.1692 1.40901C33.0498 1.55461 29.6462 0.899406 29.5268 1.04501C29.5268 1.04501 29.8254 1.33621 29.8254 1.40901C29.7059 1.55461 26.3024 0.899406 26.183 1.04501C26.183 1.04501 26.4815 1.33621 26.4815 1.40901C26.3621 1.55461 22.9586 0.899406 22.8392 1.04501C22.8392 1.04501 23.1377 1.33621 23.1377 1.40901C23.0183 1.55461 19.6148 0.899406 19.4953 1.04501C19.4953 1.04501 19.7939 1.33621 19.7939 1.40901C19.6745 1.55461 16.2709 0.899406 16.1515 1.04501C16.1515 1.04501 16.4501 1.33621 16.4501 1.40901C16.3307 1.55461 12.9271 0.899406 12.8077 1.04501C12.8077 1.04501 13.1063 1.33621 13.1063 1.40901C12.9868 1.55461 9.58331 0.899406 9.46388 1.04501C9.46388 1.04501 9.76244 1.33621 9.76244 1.40901C9.64302 1.55461 6.23949 0.899406 6.12006 1.04501C6.12006 1.04501 6.41862 1.33621 6.41862 1.40901C5.52295 1.55461 2.11942 0.899406 2 1.04501C2 1.11781 2.29856 1.40901 2.29856 1.40901" stroke="#7F7F81" stroke-linecap="round" stroke-linejoin="round"/>
<path d="M187.761 187.045L188 187.336C187.881 187.482 184.537 186.899 184.417 187.045C184.417 187.045 184.716 187.336 184.656 187.336C184.537 187.482 181.133 186.827 181.014 187.045C181.014 187.045 181.312 187.336 181.253 187.336C181.133 187.482 177.73 186.827 177.61 187.045C177.61 187.045 177.909 187.336 177.849 187.336C177.73 187.482 174.326 186.827 174.207 187.045C174.207 187.045 174.505 187.336 174.446 187.336C174.326 187.482 170.923 186.827 170.803 187.045C170.803 187.045 171.102 187.336 171.042 187.336C170.923 187.482 167.519 186.827 167.4 187.045C167.4 187.045 167.698 187.336 167.639 187.336C167.519 187.482 164.116 186.827 163.996 187.045C163.996 187.045 164.295 187.336 164.235 187.336C164.116 187.482 160.712 186.827 160.593 187.045C160.593 187.045 160.891 187.336 160.831 187.336C160.712 187.482 157.309 186.827 157.189 187.045C157.189 187.045 157.488 187.336 157.428 187.336C157.308 187.482 153.905 186.827 153.786 187.045C153.786 187.045 154.084 187.336 154.024 187.336C153.905 187.482 150.501 186.827 150.382 187.045C150.382 187.045 150.681 187.336 150.621 187.336C150.501 187.482 147.098 186.827 146.978 187.045C146.978 187.045 147.277 187.336 147.217 187.336C147.098 187.482 143.694 186.827 143.575 187.045C143.575 187.045 143.874 187.336 143.814 187.336C143.694 187.482 140.291 186.827 140.171 187.045C140.171 187.045 140.47 187.336 140.41 187.336C140.291 187.482 136.887 186.827 136.768 187.045C136.768 187.045 137.066 187.336 137.007 187.336C136.887 187.482 133.484 186.827 133.364 187.045C133.364 187.045 133.663 187.336 133.603 187.336C133.484 187.482 130.08 186.827 129.961 187.045C129.961 187.045 130.259 187.336 130.2 187.336C130.08 187.482 126.677 186.827 126.557 187.045C126.557 187.045 126.856 187.336 126.796 187.336C126.677 187.482 123.273 186.827 123.154 187.045C123.154 187.045 123.452 187.336 123.452 187.409C123.333 187.555 119.929 186.899 119.81 187.045C119.81 187.045 120.109 187.336 120.109 187.409C119.989 187.555 116.586 186.899 116.466 187.045C116.466 187.045 116.765 187.336 116.765 187.409C116.645 187.555 113.242 186.899 113.122 187.045C113.122 187.045 113.421 187.336 113.421 187.409C113.301 187.555 109.898 186.899 109.778 187.045C109.778 187.045 110.077 187.336 110.077 187.409C109.958 187.555 106.554 186.899 106.435 187.045C106.435 187.045 106.733 187.336 106.733 187.409C106.614 187.555 103.21 186.899 103.091 187.045C103.091 187.045 103.389 187.336 103.389 187.409C103.27 187.555 99.8664 186.899 99.747 187.045C99.747 187.045 100.046 187.336 100.046 187.409C99.9262 187.555 96.5226 186.899 96.4032 187.045C96.4032 187.045 96.7018 187.336 96.7018 187.409C96.5823 187.555 93.1788 186.899 93.0594 187.045C93.0594 187.045 93.3579 187.336 93.3579 187.409C93.2385 187.555 89.835 186.899 89.7156 187.045C89.7156 187.045 90.0141 187.336 90.0141 187.409C89.8947 187.555 86.4912 186.899 86.3718 187.045C86.3718 187.045 86.6703 187.336 86.6703 187.409C86.5509 187.555 83.1473 186.899 83.0279 187.045C83.0279 187.045 83.3265 187.336 83.3265 187.409C83.2071 187.555 79.8035 186.899 79.6841 187.045C79.6841 187.045 79.9827 187.336 79.9827 187.409C79.8632 187.555 76.4597 186.899 76.3403 187.045C76.3403 187.045 76.6388 187.336 76.6388 187.409C76.5194 187.555 73.1159 186.899 72.9965 187.045C72.9965 187.045 73.295 187.336 73.295 187.409C73.1756 187.555 69.7721 186.899 69.6526 187.045C69.6526 187.045 69.9512 187.336 69.9512 187.409C69.8318 187.555 66.4282 186.899 66.3088 187.045C66.3088 187.045 66.6074 187.336 66.6074 187.409C66.488 187.555 63.0844 186.899 62.965 187.045C62.965 187.045 63.2636 187.336 63.2636 187.409C63.1441 187.555 59.7406 186.899 59.6212 187.045C59.6212 187.045 59.9197 187.336 59.9197 187.409C59.8003 187.555 56.3968 186.899 56.2774 187.045C56.2774 187.045 56.5759 187.336 56.5759 187.409C56.4565 187.555 53.053 186.899 52.9335 187.045C52.9335 187.045 53.2321 187.336 53.2321 187.409C53.1127 187.555 49.7091 186.899 49.5897 187.045C49.5897 187.045 49.8883 187.336 49.8883 187.409C49.7689 187.555 46.3653 186.899 46.2459 187.045C46.2459 187.045 46.5445 187.336 46.5445 187.409C46.425 187.555 43.0215 186.899 42.9021 187.045C42.9021 187.045 43.2006 187.336 43.2006 187.409C43.0812 187.555 39.6777 186.899 39.5583 187.045C39.5583 187.045 39.8568 187.336 39.8568 187.409C39.7374 187.555 36.3339 186.899 36.2144 187.045C36.2144 187.045 36.513 187.336 36.513 187.409C36.3936 187.555 32.99 186.899 32.8706 187.045C32.8706 187.045 33.1692 187.336 33.1692 187.409C33.0498 187.555 29.6462 186.899 29.5268 187.045C29.5268 187.045 29.8254 187.336 29.8254 187.409C29.7059 187.555 26.3024 186.899 26.183 187.045C26.183 187.045 26.4815 187.336 26.4815 187.409C26.3621 187.555 22.9586 186.899 22.8392 187.045C22.8392 187.045 23.1377 187.336 23.1377 187.409C23.0183 187.555 19.6148 186.899 19.4953 187.045C19.4953 187.045 19.7939 187.336 19.7939 187.409C19.6745 187.555 16.2709 186.899 16.1515 187.045C16.1515 187.045 16.4501 187.336 16.4501 187.409C16.3307 187.555 12.9271 186.899 12.8077 187.045C12.8077 187.045 13.1063 187.336 13.1063 187.409C12.9868 187.555 9.58331 186.899 9.46388 187.045C9.46388 187.045 9.76244 187.336 9.76244 187.409C9.64302 187.555 6.23949 186.899 6.12006 187.045C6.12006 187.045 6.41862 187.336 6.41862 187.409C5.52295 187.555 2.11942 186.899 2 187.045C2 187.118 2.29856 187.409 2.29856 187.409" stroke="#7F7F81" stroke-linecap="round" stroke-linejoin="round"/>
<path d="M188.385 186.761L188.093 187C187.948 186.881 188.53 183.537 188.385 183.417C188.385 183.417 188.093 183.716 188.093 183.656C187.948 183.537 188.603 180.133 188.385 180.014C188.385 180.014 188.093 180.312 188.093 180.253C187.948 180.133 188.603 176.73 188.385 176.61C188.385 176.61 188.093 176.909 188.093 176.849C187.948 176.73 188.603 173.326 188.385 173.207C188.385 173.207 188.093 173.505 188.093 173.446C187.948 173.326 188.603 169.923 188.385 169.803C188.385 169.803 188.093 170.102 188.093 170.042C187.948 169.923 188.603 166.519 188.385 166.4C188.385 166.4 188.093 166.698 188.093 166.639C187.948 166.519 188.603 163.116 188.385 162.996C188.385 162.996 188.093 163.295 188.093 163.235C187.948 163.116 188.603 159.712 188.385 159.593C188.385 159.593 188.093 159.891 188.093 159.831C187.948 159.712 188.603 156.309 188.385 156.189C188.385 156.189 188.093 156.488 188.093 156.428C187.948 156.308 188.603 152.905 188.385 152.786C188.385 152.786 188.093 153.084 188.093 153.024C187.948 152.905 188.603 149.501 188.385 149.382C188.385 149.382 188.093 149.681 188.093 149.621C187.948 149.501 188.603 146.098 188.385 145.978C188.385 145.978 188.093 146.277 188.093 146.217C187.948 146.098 188.603 142.694 188.385 142.575C188.385 142.575 188.093 142.874 188.093 142.814C187.948 142.694 188.603 139.291 188.385 139.171C188.385 139.171 188.093 139.47 188.093 139.41C187.948 139.291 188.603 135.887 188.385 135.768C188.385 135.768 188.093 136.066 188.093 136.007C187.948 135.887 188.603 132.484 188.385 132.364C188.385 132.364 188.093 132.663 188.093 132.603C187.948 132.484 188.603 129.08 188.385 128.961C188.385 128.961 188.093 129.259 188.093 129.2C187.948 129.08 188.603 125.677 188.385 125.557C188.385 125.557 188.093 125.856 188.093 125.796C187.948 125.677 188.603 122.273 188.385 122.154C188.385 122.154 188.093 122.452 188.021 122.452C187.875 122.333 188.53 118.929 188.385 118.81C188.385 118.81 188.093 119.109 188.021 119.109C187.875 118.989 188.53 115.586 188.385 115.466C188.385 115.466 188.093 115.765 188.021 115.765C187.875 115.645 188.53 112.242 188.385 112.122C188.385 112.122 188.093 112.421 188.021 112.421C187.875 112.301 188.53 108.898 188.385 108.778C188.385 108.778 188.093 109.077 188.021 109.077C187.875 108.958 188.53 105.554 188.385 105.435C188.385 105.435 188.093 105.733 188.021 105.733C187.875 105.614 188.53 102.21 188.385 102.091C188.385 102.091 188.093 102.389 188.021 102.389C187.875 102.27 188.53 98.8664 188.385 98.747C188.385 98.747 188.093 99.0456 188.021 99.0456C187.875 98.9262 188.53 95.5226 188.385 95.4032C188.385 95.4032 188.093 95.7018 188.021 95.7018C187.875 95.5823 188.53 92.1788 188.385 92.0594C188.385 92.0594 188.093 92.3579 188.021 92.3579C187.875 92.2385 188.53 88.835 188.385 88.7156C188.385 88.7156 188.093 89.0141 188.021 89.0141C187.875 88.8947 188.53 85.4912 188.385 85.3718C188.385 85.3718 188.093 85.6703 188.021 85.6703C187.875 85.5509 188.53 82.1473 188.385 82.0279C188.385 82.0279 188.093 82.3265 188.021 82.3265C187.875 82.2071 188.53 78.8035 188.385 78.6841C188.385 78.6841 188.093 78.9827 188.021 78.9827C187.875 78.8632 188.53 75.4597 188.385 75.3403C188.385 75.3403 188.093 75.6388 188.021 75.6388C187.875 75.5194 188.53 72.1159 188.385 71.9965C188.385 71.9965 188.093 72.295 188.021 72.295C187.875 72.1756 188.53 68.7721 188.385 68.6526C188.385 68.6526 188.093 68.9512 188.021 68.9512C187.875 68.8318 188.53 65.4282 188.385 65.3088C188.385 65.3088 188.093 65.6074 188.021 65.6074C187.875 65.488 188.53 62.0844 188.385 61.965C188.385 61.965 188.093 62.2636 188.021 62.2636C187.875 62.1441 188.53 58.7406 188.385 58.6212C188.385 58.6212 188.093 58.9197 188.021 58.9197C187.875 58.8003 188.53 55.3968 188.385 55.2774C188.385 55.2774 188.093 55.5759 188.021 55.5759C187.875 55.4565 188.53 52.053 188.385 51.9335C188.385 51.9335 188.093 52.2321 188.021 52.2321C187.875 52.1127 188.53 48.7091 188.385 48.5897C188.385 48.5897 188.093 48.8883 188.021 48.8883C187.875 48.7689 188.53 45.3653 188.385 45.2459C188.385 45.2459 188.093 45.5445 188.021 45.5445C187.875 45.425 188.53 42.0215 188.385 41.9021C188.385 41.9021 188.093 42.2006 188.021 42.2006C187.875 42.0812 188.53 38.6777 188.385 38.5583C188.385 38.5583 188.093 38.8568 188.021 38.8568C187.875 38.7374 188.53 35.3339 188.385 35.2144C188.385 35.2144 188.093 35.513 188.021 35.513C187.875 35.3936 188.53 31.99 188.385 31.8706C188.385 31.8706 188.093 32.1692 188.021 32.1692C187.875 32.0498 188.53 28.6462 188.385 28.5268C188.385 28.5268 188.093 28.8254 188.021 28.8254C187.875 28.7059 188.53 25.3024 188.385 25.183C188.385 25.183 188.093 25.4815 188.021 25.4815C187.875 25.3621 188.53 21.9586 188.385 21.8392C188.385 21.8392 188.093 22.1377 188.021 22.1377C187.875 22.0183 188.53 18.6148 188.385 18.4953C188.385 18.4953 188.093 18.7939 188.021 18.7939C187.875 18.6745 188.53 15.2709 188.385 15.1515C188.385 15.1515 188.093 15.4501 188.021 15.4501C187.875 15.3307 188.53 11.9271 188.385 11.8077C188.385 11.8077 188.093 12.1063 188.021 12.1063C187.875 11.9868 188.53 8.58331 188.385 8.46388C188.385 8.46388 188.093 8.76244 188.021 8.76244C187.875 8.64302 188.53 5.23949 188.385 5.12006C188.385 5.12006 188.093 5.41862 188.021 5.41862C187.875 4.52295 188.53 1.11942 188.385 1C188.312 1 188.021 1.29856 188.021 1.29856" stroke="#7F7F81" stroke-linecap="round" stroke-linejoin="round"/>
<path d="M1.38467 186.761L1.09347 187C0.947873 186.881 1.53027 183.537 1.38467 183.417C1.38467 183.417 1.09347 183.716 1.09347 183.656C0.947873 183.537 1.60307 180.133 1.38467 180.014C1.38467 180.014 1.09347 180.312 1.09347 180.253C0.947873 180.133 1.60307 176.73 1.38467 176.61C1.38467 176.61 1.09347 176.909 1.09347 176.849C0.947873 176.73 1.60307 173.326 1.38467 173.207C1.38467 173.207 1.09347 173.505 1.09347 173.446C0.947874 173.326 1.60307 169.923 1.38467 169.803C1.38467 169.803 1.09347 170.102 1.09347 170.042C0.947874 169.923 1.60307 166.519 1.38467 166.4C1.38467 166.4 1.09347 166.698 1.09347 166.639C0.947874 166.519 1.60307 163.116 1.38467 162.996C1.38467 162.996 1.09347 163.295 1.09347 163.235C0.947874 163.116 1.60307 159.712 1.38467 159.593C1.38467 159.593 1.09347 159.891 1.09347 159.831C0.947874 159.712 1.60307 156.309 1.38467 156.189C1.38467 156.189 1.09347 156.488 1.09347 156.428C0.947874 156.308 1.60307 152.905 1.38467 152.786C1.38467 152.786 1.09347 153.084 1.09347 153.024C0.947874 152.905 1.60307 149.501 1.38467 149.382C1.38467 149.382 1.09347 149.681 1.09347 149.621C0.947875 149.501 1.60307 146.098 1.38467 145.978C1.38467 145.978 1.09347 146.277 1.09347 146.217C0.947875 146.098 1.60307 142.694 1.38467 142.575C1.38467 142.575 1.09347 142.874 1.09347 142.814C0.947875 142.694 1.60308 139.291 1.38468 139.171C1.38468 139.171 1.09348 139.47 1.09348 139.41C0.947875 139.291 1.60308 135.887 1.38468 135.768C1.38468 135.768 1.09348 136.066 1.09348 136.007C0.947875 135.887 1.60308 132.484 1.38468 132.364C1.38468 132.364 1.09348 132.663 1.09348 132.603C0.947875 132.484 1.60308 129.08 1.38468 128.961C1.38468 128.961 1.09348 129.259 1.09348 129.2C0.947875 129.08 1.60308 125.677 1.38468 125.557C1.38468 125.557 1.09348 125.856 1.09348 125.796C0.947876 125.677 1.60308 122.273 1.38468 122.154C1.38468 122.154 1.09348 122.452 1.02068 122.452C0.875076 122.333 1.53028 118.929 1.38468 118.81C1.38468 118.81 1.09348 119.109 1.02068 119.109C0.875076 118.989 1.53028 115.586 1.38468 115.466C1.38468 115.466 1.09348 115.765 1.02068 115.765C0.875076 115.645 1.53028 112.242 1.38468 112.122C1.38468 112.122 1.09348 112.421 1.02068 112.421C0.875076 112.301 1.53028 108.898 1.38468 108.778C1.38468 108.778 1.09348 109.077 1.02068 109.077C0.875076 108.958 1.53028 105.554 1.38468 105.435C1.38468 105.435 1.09348 105.733 1.02068 105.733C0.875077 105.614 1.53028 102.21 1.38468 102.091C1.38468 102.091 1.09348 102.389 1.02068 102.389C0.875077 102.27 1.53028 98.8664 1.38468 98.747C1.38468 98.747 1.09348 99.0456 1.02068 99.0456C0.875077 98.9262 1.53028 95.5226 1.38468 95.4032C1.38468 95.4032 1.09348 95.7018 1.02068 95.7018C0.875077 95.5823 1.53028 92.1788 1.38468 92.0594C1.38468 92.0594 1.09348 92.3579 1.02068 92.3579C0.875077 92.2385 1.53028 88.835 1.38468 88.7156C1.38468 88.7156 1.09348 89.0141 1.02068 89.0141C0.875077 88.8947 1.53028 85.4912 1.38468 85.3718C1.38468 85.3718 1.09348 85.6703 1.02068 85.6703C0.875077 85.5509 1.53028 82.1473 1.38468 82.0279C1.38468 82.0279 1.09348 82.3265 1.02068 82.3265C0.875078 82.2071 1.53028 78.8035 1.38468 78.6841C1.38468 78.6841 1.09348 78.9827 1.02068 78.9827C0.875078 78.8632 1.53028 75.4597 1.38468 75.3403C1.38468 75.3403 1.09348 75.6388 1.02068 75.6388C0.875078 75.5194 1.53028 72.1159 1.38468 71.9965C1.38468 71.9965 1.09348 72.295 1.02068 72.295C0.875078 72.1756 1.53028 68.7721 1.38468 68.6526C1.38468 68.6526 1.09348 68.9512 1.02068 68.9512C0.875078 68.8318 1.53028 65.4282 1.38468 65.3088C1.38468 65.3088 1.09348 65.6074 1.02068 65.6074C0.875078 65.488 1.53028 62.0844 1.38468 61.965C1.38468 61.965 1.09348 62.2636 1.02068 62.2636C0.875078 62.1441 1.53028 58.7406 1.38468 58.6212C1.38468 58.6212 1.09348 58.9197 1.02068 58.9197C0.875079 58.8003 1.53028 55.3968 1.38468 55.2774C1.38468 55.2774 1.09348 55.5759 1.02068 55.5759C0.875079 55.4565 1.53028 52.053 1.38468 51.9335C1.38468 51.9335 1.09348 52.2321 1.02068 52.2321C0.875079 52.1127 1.53028 48.7091 1.38468 48.5897C1.38468 48.5897 1.09348 48.8883 1.02068 48.8883C0.875079 48.7689 1.53028 45.3653 1.38468 45.2459C1.38468 45.2459 1.09348 45.5445 1.02068 45.5445C0.875079 45.425 1.53028 42.0215 1.38468 41.9021C1.38468 41.9021 1.09348 42.2006 1.02068 42.2006C0.875079 42.0812 1.53028 38.6777 1.38468 38.5583C1.38468 38.5583 1.09348 38.8568 1.02068 38.8568C0.875079 38.7374 1.53028 35.3339 1.38468 35.2144C1.38468 35.2144 1.09348 35.513 1.02068 35.513C0.87508 35.3936 1.53028 31.99 1.38468 31.8706C1.38468 31.8706 1.09348 32.1692 1.02068 32.1692C0.87508 32.0498 1.53028 28.6462 1.38468 28.5268C1.38468 28.5268 1.09348 28.8254 1.02068 28.8254C0.87508 28.7059 1.53028 25.3024 1.38468 25.183C1.38468 25.183 1.09348 25.4815 1.02068 25.4815C0.87508 25.3621 1.53028 21.9586 1.38468 21.8392C1.38468 21.8392 1.09348 22.1377 1.02068 22.1377C0.87508 22.0183 1.53028 18.6148 1.38468 18.4953C1.38468 18.4953 1.09348 18.7939 1.02068 18.7939C0.87508 18.6745 1.53028 15.2709 1.38468 15.1515C1.38468 15.1515 1.09348 15.4501 1.02068 15.4501C0.87508 15.3307 1.53028 11.9271 1.38468 11.8077C1.38468 11.8077 1.09348 12.1063 1.02068 12.1063C0.875081 11.9868 1.53028 8.58331 1.38468 8.46388C1.38468 8.46388 1.09348 8.76244 1.02068 8.76244C0.875081 8.64302 1.53028 5.23949 1.38468 5.12006C1.38468 5.12006 1.09348 5.41862 1.02068 5.41862C0.875081 4.52295 1.53028 1.11942 1.38468 1C1.31188 1 1.02068 1.29856 1.02068 1.29856" stroke="#7F7F81" stroke-linecap="round" stroke-linejoin="round"/>
</svg>
