<svg width="61" height="18" viewBox="0 0 61 18" fill="none" xmlns="http://www.w3.org/2000/svg">
<path d="M17.875 8.21296V8.98921C17.874 10.8087 17.2848 12.5791 16.1954 14.0364C15.106 15.4937 13.5746 16.5597 11.8298 17.0756C10.085 17.5915 8.22019 17.5296 6.51346 16.899C4.80673 16.2685 3.34955 15.1031 2.35925 13.5767C1.36894 12.0504 0.898574 10.2448 1.01829 8.42922C1.13801 6.61368 1.84139 4.88548 3.02355 3.50236C4.2057 2.11924 5.80329 1.15531 7.57804 0.754328C9.35278 0.353347 11.2096 0.536801 12.8716 1.27733" stroke="#7F7F81" stroke-linecap="round" stroke-linejoin="round"/>
<path d="M59.875 8.21296V8.98921C59.874 10.8087 59.2848 12.5791 58.1954 14.0364C57.106 15.4937 55.5746 16.5597 53.8298 17.0756C52.085 17.5915 50.2202 17.5296 48.5135 16.899C46.8067 16.2685 45.3496 15.1031 44.3592 13.5767C43.3689 12.0504 42.8986 10.2448 43.0183 8.42922C43.138 6.61368 43.8414 4.88548 45.0235 3.50236C46.2057 2.11924 47.8033 1.15531 49.578 0.754328C51.3528 0.353347 53.2096 0.536801 54.8716 1.27733" stroke="#7F7F81" stroke-linecap="round" stroke-linejoin="round"/>
<path d="M59.874 2.23926L51.4365 10.6852L48.9053 8.15395" stroke="#7F7F81" stroke-linecap="round" stroke-linejoin="round"/>
</svg>
