<svg width="60" height="17" viewBox="0 0 60 17" fill="none" xmlns="http://www.w3.org/2000/svg">
<path d="M21.3461 5.86032V7.48245C21.4906 7.22081 21.7139 7.01151 22.0028 6.85453C22.2524 6.72371 22.5413 6.6583 22.896 6.6583C23.5264 6.6583 24.0518 6.91994 24.4589 7.4432C24.8661 7.96647 25.0631 8.64671 25.0631 9.48394C25.0631 10.3212 24.8661 11.0014 24.4589 11.5247C24.2619 11.7863 23.9861 11.9695 23.6315 12.0872C23.29 12.2049 22.9485 12.2572 22.607 12.2572C21.9503 12.2572 21.3593 12.0872 20.7945 11.7471C20.2429 11.4069 19.967 10.7659 19.967 9.7979V5.16699H20.6632C20.847 5.16699 21.0178 5.2324 21.1491 5.36322C21.2805 5.50711 21.3461 5.67718 21.3461 5.86032ZM23.6709 9.41853C23.6709 8.93451 23.5658 8.55514 23.3688 8.28043C23.1718 7.99263 22.8828 7.86181 22.5413 7.86181C22.1605 7.86181 21.8715 7.99263 21.6614 8.26734C21.4643 8.55514 21.3593 8.93451 21.3593 9.41853C21.3593 9.98104 21.4512 10.3997 21.6482 10.6482C21.8452 10.936 22.1342 11.0668 22.5019 11.0668C22.8828 11.0668 23.1718 10.9229 23.3819 10.6482C23.5658 10.3735 23.6709 9.96796 23.6709 9.41853Z" fill="#696C6D"/>
<path d="M25.5754 5.19336H26.311C26.4948 5.19336 26.6656 5.25877 26.7969 5.38958C26.9283 5.5204 26.9939 5.67738 26.9939 5.86052V12.1528H25.5754V5.19336Z" fill="#696C6D"/>
<path d="M32.3134 6.77588V9.92855C32.3134 10.8835 32.0638 11.5114 31.5647 11.8123C31.0656 12.1132 30.514 12.2571 29.9229 12.2571C29.345 12.2309 28.8065 12.0739 28.3337 11.7731C27.8477 11.4722 27.6113 10.8573 27.6113 9.92855V6.77588H29.0298V10.2163C29.0298 10.5434 29.1218 10.7789 29.3188 10.9228C29.5027 11.0667 29.7259 11.1451 29.9755 11.1451C30.225 11.1451 30.4352 11.0667 30.6322 10.9228C30.8292 10.7789 30.9211 10.5434 30.9211 10.2163V7.4692C30.9211 7.28606 30.9868 7.116 31.1182 6.98519C31.2495 6.85437 31.4071 6.78896 31.6173 6.78896H32.3134V6.77588Z" fill="#696C6D"/>
<path d="M36.6609 10.4911H37.6722C37.5277 11.0536 37.2388 11.4853 36.8185 11.7862C36.3982 12.1002 35.8728 12.2571 35.2292 12.2571C34.4543 12.2571 33.8501 12.0086 33.4167 11.5115C32.9833 11.0275 32.76 10.3341 32.76 9.43151C32.76 8.56812 32.9702 7.88788 33.3905 7.40385C33.8239 6.90675 34.4281 6.6582 35.203 6.6582C36.0173 6.6582 36.6477 6.90675 37.0943 7.39077C37.5277 7.88787 37.751 8.5812 37.751 9.47076C37.751 9.52308 37.751 9.57541 37.751 9.61465C37.751 9.6539 37.751 9.68006 37.751 9.69314C37.751 9.75855 37.7379 9.81088 37.7247 9.83704H34.2048C34.2179 10.2557 34.323 10.5696 34.5069 10.7658C34.6776 10.9882 34.9534 11.0929 35.2949 11.0929C35.5313 11.0929 35.7152 11.0406 35.886 10.949C35.9254 10.9359 35.9648 10.9097 36.0042 10.8836C36.0436 10.8443 36.0698 10.8182 36.1224 10.7658C36.1355 10.7266 36.188 10.6743 36.28 10.6089C36.3719 10.5304 36.4901 10.4911 36.6609 10.4911ZM34.2179 8.92133H36.2931C36.2668 8.55504 36.1749 8.29341 36.0042 8.11026C35.8334 7.92712 35.5839 7.82247 35.2555 7.82247C34.9534 7.82247 34.717 7.91404 34.52 8.11026C34.3361 8.29341 34.231 8.56812 34.2179 8.92133Z" fill="#696C6D"/>
<path d="M43.727 12.1528H42.3085L41.4811 8.30682L40.6536 12.1528H39.2351L37.751 6.76318H39.1301L39.9838 10.4915L40.7587 6.76318H42.2035L42.939 10.4915L43.6876 7.24721C43.7664 6.92016 43.9897 6.76318 44.3443 6.76318H45.2375L43.727 12.1528Z" fill="#696C6D"/>
<path d="M48.6523 11.93C48.3634 12.0739 48.0613 12.1655 47.7461 12.2047C47.4309 12.244 47.1419 12.257 46.9055 12.257C46.4195 12.257 45.9861 12.1262 45.6315 11.8646C45.2637 11.603 45.0798 11.1713 45.0798 10.5564C45.0798 9.99392 45.2506 9.58839 45.5789 9.33984C45.9073 9.09129 46.3276 8.93431 46.853 8.85582C46.9186 8.85582 46.9974 8.84273 47.1025 8.82965C47.1944 8.80349 47.2995 8.79041 47.4309 8.77733C48.0219 8.69884 48.324 8.51569 48.324 8.25406C48.324 8.05784 48.2189 7.91394 48.0088 7.86161C47.7986 7.7962 47.6016 7.77004 47.4309 7.77004C47.247 7.77004 47.0762 7.7962 46.9186 7.84853C46.7741 7.90085 46.6559 8.00551 46.5903 8.14941H45.2243C45.2768 7.7308 45.4739 7.39067 45.7891 7.11596C46.1568 6.802 46.6822 6.64502 47.3521 6.64502C48.1138 6.64502 48.6786 6.77584 49.0595 7.02439C49.4535 7.2991 49.6505 7.66539 49.6505 8.16249V10.007C49.6505 10.5433 49.5586 10.962 49.3616 11.2759C49.1514 11.5768 48.915 11.7992 48.6523 11.93ZM48.324 9.44449C48.1401 9.53606 47.8643 9.62763 47.5359 9.70612L47.0631 9.81077C46.8136 9.87618 46.6428 9.96775 46.5377 10.0724C46.4458 10.2163 46.3933 10.3733 46.3933 10.5172C46.3933 10.7134 46.4589 10.8835 46.5771 11.0012C46.6953 11.1059 46.8792 11.1582 47.1025 11.1582C47.4834 11.1582 47.7855 11.0535 47.9956 10.8311C48.2058 10.6218 48.324 10.321 48.324 9.94159V9.44449Z" fill="#696C6D"/>
<path d="M53.236 12.1524H51.7913L49.9131 6.77588H51.4104L52.4874 10.5565L53.4462 7.2599C53.5513 6.93286 53.7745 6.77588 54.1029 6.77588H55.1536L53.236 12.1524Z" fill="#696C6D"/>
<path d="M58.9102 10.4911H59.9215C59.777 11.0536 59.4881 11.4853 59.0678 11.7862C58.6475 12.1002 58.1221 12.2571 57.4786 12.2571C56.7036 12.2571 56.0995 12.0086 55.666 11.5115C55.2326 11.0275 55.0225 10.3341 55.0225 9.43151C55.0225 8.56812 55.2326 7.88788 55.6529 7.40385C56.0863 6.90675 56.6905 6.6582 57.4654 6.6582C58.2797 6.6582 58.9102 6.90675 59.3567 7.39077C59.7902 7.88787 60.0003 8.5812 60.0003 9.47076C60.0003 9.52308 60.0003 9.57541 60.0003 9.61465C60.0003 9.6539 60.0003 9.68006 60.0003 9.69314C60.0003 9.75855 59.9872 9.81088 59.9741 9.83704H56.4804C56.4935 10.2557 56.5986 10.5696 56.7824 10.7658C56.9532 10.9882 57.2159 11.0929 57.5705 11.0929C57.8069 11.0929 58.0039 11.0406 58.1615 10.949C58.2009 10.9359 58.2403 10.9097 58.2797 10.8836C58.3191 10.8443 58.3454 10.8182 58.398 10.7658C58.4111 10.7266 58.4636 10.6743 58.5556 10.6089C58.6212 10.5304 58.7526 10.4911 58.9102 10.4911ZM56.4804 8.92133H58.5556C58.5293 8.55504 58.4374 8.29341 58.2666 8.11026C58.0959 7.92712 57.8332 7.82247 57.518 7.82247C57.2159 7.82247 56.9795 7.91404 56.7824 8.11026C56.5854 8.29341 56.4935 8.56812 56.4804 8.92133Z" fill="#696C6D"/>
<path d="M6.98854 9.66846C6.53833 11.0748 6.73615 12.6715 7.6775 13.9623C8.79621 15.491 10.5084 16.1433 12.3706 15.8783C13.4211 15.7288 14.0692 15.226 14.0692 15.226C15.3243 14.2341 15.5835 13.0587 15.1879 12.4676C14.8263 11.9241 14.2943 11.5504 12.8004 11.9241C10.5289 12.5084 7.61611 11.2583 6.98854 9.66846Z" fill="url(#paint0_linear)"/>
<path d="M8.7485 7.24986C10.1674 6.22395 11.9614 6.08127 13.4689 6.71312C14.3966 3.8528 11.8591 2.69101 10.8768 3.13262C11.0337 2.15427 10.5152 1.04004 9.06228 0.707124C7.2819 0.299477 6.04722 1.50204 6.04722 1.50204C6.04722 1.50204 6.37465 0.550859 5.41283 0.109242C4.63519 -0.250846 3.74158 0.394595 3.74158 0.394595C-0.317159 3.32965 -1.21076 8.98236 1.73609 13.0249C3.95987 16.0686 7.72529 17.3255 11.1837 16.5034C12.1183 16.2792 13.2847 15.8172 13.9873 15.2805C11.8795 16.4831 9.14414 15.9599 7.67754 13.9557C6.11543 11.8155 6.59293 8.8125 8.7485 7.24986Z" fill="url(#paint1_linear)"/>
<defs>
<linearGradient id="paint0_linear" x1="7.59762" y1="13.121" x2="16.5336" y2="11.6036" gradientUnits="userSpaceOnUse">
<stop offset="0.103" stop-color="#0B4496"/>
<stop offset="0.9636" stop-color="#27AAE1"/>
</linearGradient>
<linearGradient id="paint1_linear" x1="6.73937" y1="2.07941" x2="7.14538" y2="17.2984" gradientUnits="userSpaceOnUse">
<stop stop-color="#1C75BC"/>
<stop offset="0.2926" stop-color="#27AAE1"/>
<stop offset="0.9879" stop-color="#08BFF7"/>
</linearGradient>
</defs>
</svg>
