<svg width="45" height="45" viewBox="0 0 45 45" fill="none" xmlns="http://www.w3.org/2000/svg">
<path d="M45 22.5C45 34.9264 34.9264 45 22.5 45C10.0736 45 0 34.9264 0 22.5C0 10.0736 10.0736 0 22.5 0C34.9264 0 45 10.0736 45 22.5ZM5.9367 22.5C5.9367 31.6477 13.3523 39.0633 22.5 39.0633C31.6477 39.0633 39.0633 31.6477 39.0633 22.5C39.0633 13.3523 31.6477 5.9367 22.5 5.9367C13.3523 5.9367 5.9367 13.3523 5.9367 22.5Z" fill="#C4C4C4"/>
<path d="M45 22.5C45 19.5453 44.418 16.6194 43.2873 13.8896C42.1566 11.1598 40.4992 8.67942 38.4099 6.5901C36.3206 4.50078 33.8402 2.84344 31.1104 1.71271C28.3806 0.581979 25.4547 -1.29156e-07 22.5 0L22.5 6.02859C24.6631 6.02859 26.8049 6.45464 28.8033 7.2824C30.8017 8.11017 32.6175 9.32344 34.147 10.853C35.6766 12.3825 36.8898 14.1983 37.7176 16.1967C38.5454 18.1951 38.9714 20.3369 38.9714 22.5H45Z" fill="#141CBA"/>
</svg>
