<svg width="18" height="18" viewBox="0 0 18 18" fill="none" xmlns="http://www.w3.org/2000/svg">
<path d="M16.9995 13.0029V15.4163C17.0004 15.6403 16.9545 15.8621 16.8648 16.0674C16.775 16.2727 16.6434 16.4569 16.4783 16.6084C16.3132 16.7599 16.1183 16.8752 15.906 16.947C15.6938 17.0187 15.4689 17.0454 15.2457 17.0252C12.7702 16.7562 10.3923 15.9103 8.30312 14.5555C6.35937 13.3204 4.71141 11.6724 3.47627 9.72864C2.11669 7.62993 1.27059 5.24046 1.00653 2.75383C0.986426 2.53137 1.01286 2.30716 1.08416 2.09547C1.15546 1.88379 1.27005 1.68926 1.42065 1.52429C1.57124 1.35932 1.75454 1.22751 1.95886 1.13726C2.16319 1.04701 2.38407 1.00029 2.60744 1.00008H5.02086C5.41128 0.996235 5.78977 1.13449 6.0858 1.38907C6.38182 1.64365 6.57517 1.99718 6.62981 2.38378C6.73168 3.15613 6.92059 3.91447 7.19295 4.64435C7.30118 4.93229 7.32461 5.24523 7.26045 5.54607C7.19629 5.84692 7.04723 6.12307 6.83093 6.3418L5.80925 7.36348C6.95446 9.37752 8.62206 11.0451 10.6361 12.1903L11.6578 11.1687C11.8765 10.9524 12.1527 10.8033 12.4535 10.7391C12.7544 10.675 13.0673 10.6984 13.3552 10.8066C14.0851 11.079 14.8435 11.2679 15.6158 11.3698C16.0066 11.4249 16.3635 11.6217 16.6186 11.9228C16.8737 12.2239 17.0093 12.6083 16.9995 13.0029Z" stroke="#616266" stroke-linecap="round" stroke-linejoin="round"/>
</svg>
