<svg width="28" height="28" viewBox="0 0 28 28" fill="none" xmlns="http://www.w3.org/2000/svg">
<path d="M23.4915 14.2167C23.5161 11.0903 21.8393 8.05282 18.9423 6.37003C17.4031 5.47594 15.6334 5.05836 13.8568 5.17008C12.0803 5.2818 10.3768 5.91781 8.96176 6.99769C7.54671 8.07757 6.48365 9.5528 5.90702 11.2369C5.3304 12.9209 5.2661 14.7381 5.72225 16.4587C6.17841 18.1793 7.13454 19.726 8.46973 20.9032C9.80492 22.0804 11.4592 22.8352 13.2234 23.0722C14.9876 23.3092 16.7824 23.0177 18.381 22.2347C19.9795 21.4516 21.3099 20.2121 22.204 18.6729" stroke="#616266" stroke-width="1.8" stroke-linecap="round" stroke-linejoin="round"/>
<path d="M19.6005 11.957L23.4917 14.2173L25.752 10.3262" stroke="#616266" stroke-width="1.8" stroke-linecap="round" stroke-linejoin="round"/>
</svg>
