<svg width="16" height="17" viewBox="0 0 16 17" fill="none" xmlns="http://www.w3.org/2000/svg">
<path d="M6.98854 9.66846C6.53833 11.0748 6.73615 12.6715 7.6775 13.9623C8.79621 15.491 10.5084 16.1433 12.3706 15.8783C13.4211 15.7288 14.0692 15.226 14.0692 15.226C15.3243 14.2341 15.5835 13.0587 15.1879 12.4676C14.8263 11.9241 14.2943 11.5504 12.8004 11.9241C10.5289 12.5084 7.61611 11.2583 6.98854 9.66846Z" fill="url(#paint0_linear)"/>
<path d="M8.7485 7.24986C10.1674 6.22395 11.9614 6.08127 13.4689 6.71312C14.3966 3.8528 11.8591 2.69101 10.8768 3.13262C11.0337 2.15427 10.5152 1.04004 9.06228 0.707124C7.2819 0.299477 6.04722 1.50204 6.04722 1.50204C6.04722 1.50204 6.37465 0.550859 5.41283 0.109242C4.63519 -0.250846 3.74158 0.394595 3.74158 0.394595C-0.317159 3.32965 -1.21076 8.98236 1.73609 13.0249C3.95987 16.0686 7.72529 17.3255 11.1837 16.5034C12.1183 16.2792 13.2847 15.8172 13.9873 15.2805C11.8795 16.4831 9.14414 15.9599 7.67754 13.9557C6.11543 11.8155 6.59293 8.8125 8.7485 7.24986Z" fill="url(#paint1_linear)"/>
<defs>
<linearGradient id="paint0_linear" x1="7.59762" y1="13.121" x2="16.5336" y2="11.6036" gradientUnits="userSpaceOnUse">
<stop offset="0.103" stop-color="#0B4496"/>
<stop offset="0.9636" stop-color="#27AAE1"/>
</linearGradient>
<linearGradient id="paint1_linear" x1="6.73937" y1="2.07941" x2="7.14538" y2="17.2984" gradientUnits="userSpaceOnUse">
<stop stop-color="#1C75BC"/>
<stop offset="0.2926" stop-color="#27AAE1"/>
<stop offset="0.9879" stop-color="#08BFF7"/>
</linearGradient>
</defs>
</svg>
