<svg width="24" height="24" viewBox="0 0 24 24" fill="none" opacity="0.8" xmlns="http://www.w3.org/2000/svg">
<path d="M23.6405 9.6022L20.8004 9.3202C20.6274 8.75119 20.3994 8.19968 20.1204 7.67466L21.928 5.46562C22.058 5.30662 22.0465 5.07461 21.901 4.92911L19.0714 2.10055C18.9259 1.95555 18.6944 1.94405 18.5354 2.07405L16.3258 3.88009C15.8013 3.60058 15.2508 3.37308 14.6823 3.20007L14.3983 0.360012C14.3778 0.155508 14.2058 4.78066e-06 14.0003 4.78066e-06H10.0002C9.7942 -0.00099524 9.6207 0.155008 9.6002 0.360012L9.32019 3.20007C8.75168 3.37308 8.20117 3.60058 7.67666 3.88009L5.46511 2.07405C5.30611 1.94405 5.07461 1.95505 4.9291 2.10055L2.10054 4.92861C1.95504 5.07411 1.94354 5.30612 2.07354 5.46512L3.88008 7.67416C3.60057 8.19918 3.37307 8.75069 3.20007 9.3197L0.360007 9.60371C0.156503 9.62421 0.00100002 9.79471 0 9.99971V13.9998C0 14.2053 0.155503 14.3773 0.360007 14.3978L3.20007 14.6818C3.37307 15.2503 3.60107 15.8008 3.88008 16.3253L2.07354 18.5354C1.94304 18.6944 1.95454 18.9264 2.10054 19.0719L4.9291 21.9005C5.07461 22.0455 5.30611 22.057 5.46511 21.927L7.67466 20.1209C8.19967 20.4004 8.75118 20.6284 9.32019 20.8009L9.6042 23.641C9.6247 23.846 9.7982 24.002 10.0042 24.001H14.0003C14.2058 24.001 14.3778 23.8455 14.3983 23.641L14.6823 20.8009C15.2508 20.6279 15.8013 20.4004 16.3258 20.1209L18.5354 21.928C18.6944 22.0585 18.9259 22.047 19.0714 21.9015L21.9 19.0729C22.0455 18.9274 22.057 18.6954 21.9265 18.5364L20.1199 16.3258C20.3994 15.8013 20.6269 15.2508 20.7999 14.6823L23.64 14.3983C23.8445 14.3778 24 14.2058 24 14.0003V10.0002C24.0005 9.79471 23.845 9.62271 23.6405 9.6022ZM23.2005 13.6403L20.4519 13.9153C20.2869 13.9318 20.1494 14.0483 20.1059 14.2083C19.9184 14.8948 19.6449 15.5548 19.2909 16.1728C19.2084 16.3168 19.2229 16.4963 19.3274 16.6249L21.0799 18.7604L18.7599 21.0779L16.6223 19.3284C16.4938 19.2234 16.3143 19.2084 16.1703 19.2909C15.5533 19.6449 14.8933 19.9189 14.2063 20.1059C14.0463 20.1489 13.9293 20.2869 13.9128 20.4519L13.6403 23.2005H10.3642L10.0892 20.4514C10.0722 20.2864 9.95571 20.1489 9.7952 20.1054C9.10869 19.9184 8.44868 19.6449 7.83116 19.2904C7.68716 19.2079 7.50766 19.2229 7.37915 19.3279L5.23961 21.0774L2.92206 18.7604L4.6726 16.6219C4.7771 16.4933 4.7921 16.3133 4.7096 16.1698C4.35609 15.5523 4.08208 14.8923 3.89458 14.2053C3.85108 14.0453 3.71358 13.9283 3.54857 13.9118L0.800017 13.6403V10.3642L3.54857 10.0892C3.71358 10.0727 3.85108 9.95621 3.89458 9.79621C4.08208 9.10969 4.35559 8.44918 4.7096 7.83167C4.7921 7.68767 4.7776 7.50816 4.6726 7.37966L2.92206 5.24011L5.24011 2.92257L7.37865 4.6721C7.50716 4.7771 7.68666 4.79211 7.83066 4.7096C8.44768 4.3556 9.10819 4.08159 9.7947 3.89459C9.95471 3.85159 10.0717 3.71358 10.0887 3.54858L10.3622 0.800021H13.6403L13.9153 3.54908C13.9318 3.71408 14.0488 3.85159 14.2088 3.89509C14.8953 4.08209 15.5553 4.3556 16.1728 4.7101C16.3168 4.7926 16.4963 4.7776 16.6248 4.6726L18.7604 2.92307L21.0804 5.24061L19.3299 7.37916C19.2249 7.50766 19.2104 7.68766 19.2929 7.83117C19.6469 8.44868 19.9204 9.10869 20.1079 9.79521C20.1514 9.95521 20.2889 10.0722 20.4539 10.0887L23.2005 10.3622V13.6403Z" fill="#fff"/>
<path d="M12.0009 5.59962C8.91684 5.59362 6.26579 7.78317 5.68828 10.8122C5.11076 13.8413 6.7718 16.8529 9.64186 17.9809C12.5119 19.1089 15.7785 18.0344 17.4185 15.4228C19.0586 12.8113 18.6075 9.4022 16.345 7.30716C15.167 6.20664 13.6134 5.59612 12.0009 5.59962ZM6.42179 11.5997C6.51529 10.3047 7.0573 9.0832 7.95382 8.14468C8.24333 8.38318 8.55384 8.59469 8.88084 8.77819C8.59534 9.69271 8.43733 10.6422 8.41183 11.5997H6.42179ZM12.4009 15.2188C12.9904 15.2603 13.5694 15.3953 14.1165 15.6188C13.6824 16.6269 13.0764 17.3309 12.4009 17.5349V15.2188ZM12.4009 14.4188V12.3998H14.7905C14.7635 13.2348 14.629 14.0628 14.3905 14.8633C13.7554 14.6093 13.0839 14.4588 12.4009 14.4188ZM12.4009 11.5997V9.58071C13.0834 9.54021 13.7549 9.3897 14.39 9.1357C14.6285 9.93621 14.763 10.7642 14.79 11.5992H12.4009V11.5997ZM11.6009 8.78119C11.0114 8.73969 10.4324 8.60469 9.88536 8.38118C10.3194 7.37316 10.9254 6.66915 11.6009 6.46514V8.78119ZM12.4009 8.78119V6.46664C13.0769 6.67065 13.6809 7.37466 14.1165 8.38268C13.5694 8.60569 12.9904 8.74019 12.4009 8.78119ZM14.14 6.82765C14.6115 7.02315 15.0545 7.28316 15.455 7.59967C15.2585 7.75417 15.0525 7.89567 14.837 8.02217C14.6535 7.59717 14.42 7.19616 14.14 6.82765ZM9.16485 8.02217C8.94934 7.89517 8.74284 7.75417 8.54634 7.59967C8.94734 7.28266 9.38985 7.02265 9.86186 6.82715C9.58236 7.19616 9.34835 7.59717 9.16485 8.02217ZM9.61186 9.1362C10.2464 9.3902 10.9184 9.54021 11.6009 9.58121V11.5997H9.21135C9.23835 10.7647 9.37285 9.93671 9.61186 9.1362ZM11.6009 12.3998V14.4188C10.9184 14.4593 10.2469 14.6098 9.61186 14.8638C9.37335 14.0633 9.23885 13.2353 9.21185 12.4003H11.6009V12.3998ZM11.6009 15.2188V17.5334C10.9249 17.3294 10.3209 16.6254 9.88536 15.6173C10.4324 15.3938 11.0114 15.2593 11.6009 15.2188ZM9.86136 17.1719C9.38985 16.9764 8.94684 16.7164 8.54684 16.3998C8.74284 16.2453 8.94934 16.1038 9.16485 15.9773C9.34785 16.4023 9.58186 16.8034 9.86136 17.1719ZM14.837 15.9773C15.0525 16.1043 15.259 16.2453 15.4555 16.3998C15.0545 16.7169 14.612 16.9769 14.1405 17.1724C14.42 16.8034 14.6535 16.4023 14.837 15.9773ZM15.123 15.2213C15.408 14.3068 15.565 13.3573 15.59 12.3998H17.5805C17.4865 13.6948 16.945 14.9163 16.048 15.8548C15.759 15.6168 15.4495 15.4043 15.123 15.2213ZM15.59 11.5997C15.565 10.6422 15.408 9.69271 15.123 8.77819C15.4495 8.59469 15.759 8.38268 16.048 8.14468C16.945 9.0832 17.487 10.3047 17.5805 11.5997H15.59ZM6.42179 12.3998H8.41233C8.43783 13.3573 8.59534 14.3068 8.88134 15.2213C8.55484 15.4048 8.24533 15.6168 7.95632 15.8548C7.0583 14.9168 6.51579 13.6948 6.42179 12.3998Z" fill="#fff"/>
<path d="M12.3996 4H11.5996V4.80002H12.3996V4Z" fill="#fff"/>
<path d="M6.06055 6.62656L6.62605 6.06055L7.19206 6.62606L6.62655 7.19208L6.06055 6.62656Z" fill="#fff"/>
<path d="M4.80002 11.5996H4V12.3996H4.80002V11.5996Z" fill="#fff"/>
<path d="M6.06055 17.3741L6.62655 16.8086L7.19206 17.3746L6.62605 17.9401L6.06055 17.3741Z" fill="#fff"/>
<path d="M12.3996 19.2012H11.5996V20.0012H12.3996V19.2012Z" fill="#fff"/>
<path d="M16.8086 17.3746L17.3741 16.8086L17.9401 17.3741L17.3746 17.9401L16.8086 17.3746Z" fill="#fff"/>
<path d="M20.0012 11.5996H19.2012V12.3996H20.0012V11.5996Z" fill="#fff"/>
<path d="M16.8086 6.62605L17.3746 6.06055L17.9401 6.62655L17.3741 7.19206L16.8086 6.62605Z" fill="#fff"/>
</svg>
