<svg width="20" height="24" viewBox="0 0 20 24" fill="none" xmlns="http://www.w3.org/2000/svg">
<g clip-path="url(#clip0)">
<path d="M14.929 21.5588L11.702 19.8127L11.7375 0.712891L14.9644 2.49459L14.929 21.5588Z" fill="#B72C85"/>
<path d="M14.9645 2.49438L11.7375 0.712681L16.773 0L20 1.7817L14.9645 2.49438Z" fill="#A31F7B"/>
<path d="M19.9999 1.78174L19.9644 20.846L14.929 21.5586L14.9644 2.49442L19.9999 1.78174Z" fill="#BB5191"/>
<path d="M9.18435 22.7347L5.9574 20.9886L5.99286 5.45215L9.21981 7.19822L9.18435 22.7347Z" fill="#E59007"/>
<path d="M9.21963 7.19801L5.99268 5.45194L11.0281 4.73926L14.2905 6.48533L9.21963 7.19801Z" fill="#CE7C05"/>
<path d="M14.2908 6.48535L14.2554 22.0218L9.18445 22.7345L9.21991 7.19803L14.2908 6.48535Z" fill="#FEA702"/>
<path d="M3.22695 23.5897L0 21.808L0.035461 11.3315L3.26241 13.0776L3.22695 23.5897Z" fill="#EF5050"/>
<path d="M3.26235 13.0779L0.0354004 11.3318L5.07086 10.6191L8.29781 12.3652L3.26235 13.0779Z" fill="#D33535"/>
<path d="M8.29785 12.3652V22.8773L3.22693 23.59L3.26239 13.0779L8.29785 12.3652Z" fill="#FE6464"/>
</g>
<defs>
<clipPath id="clip0">
<rect width="20" height="23.5897" fill="white"/>
</clipPath>
</defs>
</svg>
