<svg width="20" height="20" viewBox="0 0 20 20" fill="none" xmlns="http://www.w3.org/2000/svg">
<path d="M11.6591 10.8454C11.6591 10.6722 11.7995 10.5318 11.9728 10.5318H17.8909C18.1841 10.5318 18.4227 10.2932 18.4227 10V2.10911C18.4227 1.81592 18.1841 1.57734 17.8909 1.57734H10C9.70681 1.57734 9.46823 1.81592 9.46823 2.10911V8.02724C9.46823 8.20047 9.32779 8.34092 9.15456 8.34092C8.98133 8.34092 8.84089 8.20047 8.84089 8.02724V2.10911C8.84089 1.46992 9.36081 0.95 10 0.95H17.8909C18.5301 0.95 19.05 1.46992 19.05 2.10911V10C19.05 10.6392 18.5301 11.1591 17.8909 11.1591H11.9728C11.7995 11.1591 11.6591 11.0187 11.6591 10.8454Z" fill="#616266" stroke="#616266" stroke-width="0.1"/>
<path d="M2.10913 8.84093H4.36367C4.5369 8.84093 4.67734 8.98137 4.67734 9.1546C4.67734 9.32783 4.5369 9.46827 4.36367 9.46827H2.10913C1.81594 9.46827 1.57736 9.70685 1.57736 10V17.8909C1.57736 18.1841 1.81594 18.4227 2.10913 18.4227H10C10.2932 18.4227 10.5318 18.1841 10.5318 17.8909V10C10.5318 9.70685 10.2932 9.46827 10 9.46827H5.49092C5.31768 9.46827 5.17724 9.32783 5.17724 9.1546C5.17724 8.98137 5.31768 8.84093 5.49092 8.84093H10C10.6392 8.84093 11.1591 9.36085 11.1591 10V17.8909C11.1591 18.5301 10.6392 19.05 10 19.05H2.10913C1.46994 19.05 0.95002 18.5301 0.95002 17.8909V10C0.95002 9.36085 1.46994 8.84093 2.10913 8.84093Z" fill="#616266" stroke="#616266" stroke-width="0.1"/>
<path d="M14.96 5.07931L14.96 5.07932C14.7438 5.56076 14.4203 6.14059 13.9467 6.72003C13.1973 5.80221 12.8277 4.8897 12.6673 4.39549H16.4818C16.655 4.39549 16.7955 4.25505 16.7955 4.08181C16.7955 3.90858 16.655 3.76814 16.4818 3.76814H14.2591V3.51819C14.2591 3.34496 14.1187 3.20452 13.9455 3.20452C13.7722 3.20452 13.6318 3.34496 13.6318 3.51819V3.76814H11.4091C11.2359 3.76814 11.0954 3.90854 11.0954 4.08178C11.0954 4.25501 11.2359 4.39545 11.4091 4.39545H12.0107C12.0952 4.69203 12.2747 5.22367 12.6125 5.85092L12.6565 5.82722L12.6125 5.85092C12.825 6.24567 13.1217 6.71402 13.5238 7.19294C13.1318 7.594 12.6602 7.98171 12.0932 8.32188L12.0932 8.32189L14.96 5.07931ZM14.96 5.07931C15.0309 4.92132 15.2164 4.85068 15.3746 4.9216L15.3746 4.92161M14.96 5.07931L15.3746 4.92161M15.3746 4.92161C15.5326 4.99258 15.6032 5.17819 15.5323 5.33624L15.5323 5.33624M15.3746 4.92161L15.5323 5.33624M15.5323 5.33624C15.2882 5.87988 14.9183 6.53909 14.3694 7.19354M15.5323 5.33624L14.3694 7.19354M14.3694 7.19354C14.7607 7.59433 15.2318 7.98227 15.7978 8.32189C15.9464 8.41101 15.9945 8.60369 15.9054 8.75225M14.3694 7.19354L15.9054 8.75225M15.9054 8.75225C15.9054 8.75224 15.9054 8.75224 15.9054 8.75224L15.8625 8.72652L15.9054 8.75225ZM12.2548 8.90456C12.1484 8.90456 12.0445 8.85033 11.9856 8.75224L12.3903 8.81694L12.416 8.85981C12.416 8.85981 12.416 8.85981 12.416 8.85981C12.3655 8.8901 12.3098 8.90456 12.2548 8.90456ZM15.475 8.85981C14.868 8.49561 14.3637 8.08042 13.9468 7.65766L15.475 8.85981C15.475 8.85981 15.475 8.85981 15.475 8.85981Z" fill="#616266" stroke="#616266" stroke-width="0.1"/>
<path d="M5.64953 11.3611C5.71588 11.1998 5.87156 11.0954 6.04596 11.0954H6.04596H6.04596H6.04596H6.04597H6.04597H6.04597H6.04597H6.04597H6.04598H6.04598H6.04598H6.04598H6.04598H6.04599H6.04599H6.04599H6.04599H6.04599H6.046H6.046H6.046H6.046H6.046H6.04601H6.04601H6.04601H6.04601H6.04601H6.04602H6.04602H6.04602H6.04602H6.04602H6.04603H6.04603H6.04603H6.04603H6.04603H6.04604H6.04604H6.04604H6.04604H6.04604H6.04605H6.04605H6.04605H6.04605H6.04606H6.04606H6.04606H6.04606H6.04606H6.04607H6.04607H6.04607H6.04607H6.04607H6.04608H6.04608H6.04608H6.04608H6.04609H6.04609H6.04609H6.04609H6.04609H6.0461H6.0461H6.0461H6.0461H6.04611H6.04611H6.04611H6.04611H6.04612H6.04612H6.04612H6.04612H6.04612H6.04613H6.04613H6.04613H6.04613H6.04614H6.04614H6.04614H6.04614H6.04615H6.04615H6.04615H6.04615H6.04615H6.04616H6.04616H6.04616H6.04616H6.04617H6.04617H6.04617H6.04617H6.04618H6.04618H6.04618H6.04618H6.04619H6.04619H6.04619H6.04619H6.04619H6.0462H6.0462H6.0462H6.0462H6.04621H6.04621H6.04621H6.04621H6.04622H6.04622H6.04622H6.04622H6.04623H6.04623H6.04623H6.04623H6.04624H6.04624H6.04624H6.04624H6.04625H6.04625H6.04625H6.04625H6.04626H6.04626H6.04626H6.04626H6.04626H6.04627H6.04627H6.04627H6.04627H6.04628H6.04628H6.04628H6.04628H6.04629H6.04629H6.04629H6.04629H6.0463H6.0463H6.0463H6.0463H6.04631H6.04631H6.04631H6.04631H6.04632H6.04632H6.04632H6.04632H6.04633H6.04633H6.04633H6.04633H6.04634H6.04634H6.04634H6.04634L6.04634 11.1454V11.0954L6.04639 11.0954L5.64617 11.3696L5.64953 11.3611ZM5.64953 11.3611L5.69577 11.3801L5.64953 11.361L5.64953 11.3611ZM3.75871 16.371L5.64611 11.3697L3.95908 16.7285C3.82285 16.6771 3.75405 16.5249 3.80549 16.3887L3.75871 16.371L3.75871 16.371ZM8.35031 16.3702C8.41196 16.532 8.33075 16.7133 8.16884 16.7749L6.39643 11.3807L6.44268 11.3618L6.44271 11.3618L6.44532 11.3684L6.44533 11.3684L6.44551 11.3689L8.35031 16.3702L8.35031 16.3702ZM4.97587 14.9226H7.12766L6.04684 12.0847L4.97587 14.9226Z" fill="#616266" stroke="#616266" stroke-width="0.1"/>
<path d="M12.9136 15.3227L13.2881 15.0419L13.2881 15.0419C13.4266 14.938 13.4547 14.7413 13.3508 14.6027C13.2469 14.4642 13.0502 14.4361 12.9116 14.54L12.9116 14.54M12.9136 15.3227L12.9416 14.58L12.9116 14.54M12.9136 15.3227H13.6635C14.5783 15.3227 15.3226 14.5784 15.3226 13.6637V11.9729C15.3226 11.7997 15.463 11.6592 15.6362 11.6592C15.8095 11.6592 15.9499 11.7997 15.9499 11.9729V13.6637C15.9499 14.9245 14.9243 15.9501 13.6635 15.9501H12.9136L13.2881 16.2309C13.4266 16.3348 13.4547 16.5315 13.3508 16.67C13.2891 16.7522 13.1948 16.7955 13.0996 16.7955C13.0341 16.7955 12.968 16.775 12.9117 16.7328L12.9116 16.7328L11.7844 15.8873L11.7844 15.8873C11.7054 15.8281 11.6589 15.7351 11.6589 15.6364C11.6589 15.5377 11.7054 15.4447 11.7844 15.3855C11.7844 15.3855 11.7844 15.3854 11.7844 15.3854M12.9136 15.3227L11.7844 15.3854M12.9116 14.54L11.7844 15.3854M12.9116 14.54L11.7844 15.3854" fill="#616266" stroke="#616266" stroke-width="0.1"/>
<path d="M7.08621 4.67731L6.71177 4.95814L6.71177 4.95814C6.57321 5.06207 6.5451 5.25871 6.64903 5.39728C6.64904 5.39728 6.64904 5.39728 6.64904 5.39728L7.08621 4.67731ZM7.08621 4.67731H6.33631C5.42153 4.67731 4.67726 5.42161 4.67726 6.33636V8.02713C4.67726 8.20036 4.53682 8.34081 4.36359 8.34081C4.19036 8.34081 4.04992 8.20036 4.04992 8.02713V6.33636C4.04992 5.07557 5.07556 4.04997 6.33631 4.04997H7.08621L6.71177 3.76914L6.71177 3.76914C6.57321 3.66521 6.5451 3.46857 6.64904 3.33L6.64904 3.33C6.75301 3.1914 6.94958 3.16334 7.08817 3.26726L7.08818 3.26727L8.21542 4.1127L8.21543 4.11271C8.29442 4.17196 8.34089 4.2649 8.34089 4.36364C8.34089 4.46237 8.29443 4.55535 8.21541 4.61459M7.08621 4.67731L8.21541 4.61459M8.21541 4.61459L8.21542 4.61458L8.18544 4.5746L8.21541 4.61459ZM7.08818 5.46001L7.08818 5.46002L7.05818 5.42002L7.08818 5.46001Z" fill="#616266" stroke="#616266" stroke-width="0.1"/>
</svg>
