<svg width="194" height="193" viewBox="0 0 194 193" fill="none" xmlns="http://www.w3.org/2000/svg">
<path d="M188.516 3.95818C188.452 4.31223 189.031 4.1352 188.999 4.40074C188.258 10.154 177.219 -3.03427 176.286 3.95818C176.222 4.40074 177.187 4.40074 177.123 4.75479C175.996 13.3405 165.183 -4.62748 164.056 3.95818C163.992 4.40074 164.957 4.1352 164.893 4.75479C163.766 13.2519 152.888 -4.0079 151.826 3.95818C151.73 4.57776 152.727 4.31223 152.663 4.75479C151.891 10.5966 140.755 -4.89302 139.596 3.95818C139.5 4.66628 140.53 4.22372 140.433 4.75479C139.339 13.1634 128.589 -5.33558 127.366 3.95818C127.302 4.48925 128.268 4.40074 128.203 4.75479C126.98 14.0485 116.166 -3.91938 115.137 3.95818C115.072 4.40074 116.07 4.1352 115.973 4.8433C114.879 13.1634 104.162 -5.42409 102.907 3.95818C102.81 4.57776 103.808 4.31223 103.743 4.8433C102.713 12.6324 91.771 -4.27343 90.6767 3.95818C90.6123 4.48925 91.61 4.22372 91.5135 4.8433C90.387 13.429 79.2514 -2.23766 78.4468 3.95818C78.3824 4.57776 79.3801 4.22372 79.2836 4.8433C78.2215 12.8094 67.3111 -4.36194 66.2169 3.95818C66.1525 4.40074 67.1502 4.22372 67.0537 4.8433C65.7341 14.8452 55.1456 -4.8045 53.987 3.95818C53.8904 4.57776 54.9203 4.31223 54.8238 4.8433C53.8582 12.1013 42.6904 -3.12278 41.7249 3.95818C41.6283 4.57776 42.6582 4.1352 42.5617 4.8433C41.5962 12.1898 30.3961 -3.03427 29.4628 3.95818C29.3662 4.57776 30.3961 4.31223 30.3318 4.8433C29.3341 12.2783 18.5203 -5.77814 17.2329 3.95818C17.1685 4.40074 18.1662 4.31223 18.1019 4.8433C16.9111 13.8715 5.7754 -1.7951 5.00299 3.95818C4.93862 4.57776 5.93632 4.22372 5.87195 4.8433" stroke="#7F7F81" stroke-linecap="round" stroke-linejoin="round"/>
<path d="M188.516 187.958C188.452 188.312 189.031 188.135 188.999 188.401C188.258 194.154 177.219 180.966 176.286 187.958C176.222 188.401 177.187 188.401 177.123 188.755C175.996 197.34 165.183 179.373 164.056 187.958C163.992 188.401 164.957 188.135 164.893 188.755C163.766 197.252 152.888 179.992 151.826 187.958C151.73 188.578 152.727 188.312 152.663 188.755C151.891 194.597 140.755 179.107 139.596 187.958C139.5 188.666 140.53 188.224 140.433 188.755C139.339 197.163 128.589 178.664 127.366 187.958C127.302 188.489 128.268 188.401 128.203 188.755C126.98 198.049 116.166 180.081 115.137 187.958C115.072 188.401 116.07 188.135 115.973 188.843C114.879 197.163 104.162 178.576 102.907 187.958C102.81 188.578 103.808 188.312 103.743 188.843C102.713 196.632 91.771 179.727 90.6767 187.958C90.6123 188.489 91.61 188.224 91.5135 188.843C90.387 197.429 79.2514 181.762 78.4468 187.958C78.3824 188.578 79.3801 188.224 79.2836 188.843C78.2215 196.809 67.3111 179.638 66.2169 187.958C66.1525 188.401 67.1502 188.224 67.0537 188.843C65.7341 198.845 55.1456 179.195 53.987 187.958C53.8904 188.578 54.9203 188.312 54.8238 188.843C53.8582 196.101 42.6904 180.877 41.7249 187.958C41.6283 188.578 42.6582 188.135 42.5617 188.843C41.5962 196.19 30.3961 180.966 29.4628 187.958C29.3662 188.578 30.3961 188.312 30.3318 188.843C29.3341 196.278 18.5203 178.222 17.2329 187.958C17.1685 188.401 18.1662 188.312 18.1019 188.843C16.9111 197.872 5.7754 182.205 5.00299 187.958C4.93862 188.578 5.93632 188.224 5.87195 188.843" stroke="#7F7F81" stroke-linecap="round" stroke-linejoin="round"/>
<path d="M188.958 4.48405C189.312 4.54842 189.135 3.96911 189.401 4.00129C195.154 4.74152 181.966 15.7806 188.958 16.714C189.401 16.7783 189.401 15.8128 189.755 15.8772C198.34 17.0036 180.373 27.8174 188.958 28.9439C189.401 29.0082 189.135 28.0427 189.755 28.1071C198.252 29.2335 180.992 40.1117 188.958 41.1738C189.578 41.2703 189.312 40.2726 189.755 40.337C195.597 41.1094 180.107 52.2451 188.958 53.4037C189.666 53.5002 189.224 52.4703 189.755 52.5669C198.163 53.6612 179.664 64.4106 188.958 65.6336C189.489 65.698 189.401 64.7324 189.755 64.7968C199.049 66.0198 181.081 76.8336 188.958 77.8635C189.401 77.9279 189.135 76.9302 189.843 77.0267C198.163 78.121 179.576 88.8382 188.958 90.0934C189.578 90.1899 189.312 89.1923 189.843 89.2566C197.632 90.2865 180.727 101.229 188.958 102.323C189.489 102.388 189.224 101.39 189.843 101.487C198.429 102.613 182.762 113.749 188.958 114.553C189.578 114.618 189.224 113.62 189.843 113.716C197.809 114.778 180.638 125.689 188.958 126.783C189.401 126.847 189.224 125.85 189.843 125.946C199.845 127.266 180.195 137.854 188.958 139.013C189.578 139.11 189.312 138.08 189.843 138.176C197.101 139.142 181.877 150.31 188.958 151.275C189.578 151.372 189.135 150.342 189.843 150.438C197.19 151.404 181.966 162.604 188.958 163.537C189.578 163.634 189.312 162.604 189.843 162.668C197.278 163.666 179.222 174.48 188.958 175.767C189.401 175.831 189.312 174.834 189.843 174.898C198.872 176.089 183.205 187.225 188.958 187.997C189.578 188.061 189.224 187.064 189.843 187.128" stroke="#7F7F81" stroke-linecap="round" stroke-linejoin="round"/>
<path d="M3.95818 187.516C4.31223 187.452 4.1352 188.031 4.40074 187.999C10.154 187.258 -3.03427 176.219 3.95818 175.286C4.40074 175.222 4.40074 176.187 4.75479 176.123C13.3405 174.996 -4.62748 164.183 3.95818 163.056C4.40074 162.992 4.1352 163.957 4.75479 163.893C13.2519 162.766 -4.0079 151.888 3.95818 150.826C4.57776 150.73 4.31223 151.727 4.75479 151.663C10.5966 150.891 -4.89302 139.755 3.95818 138.596C4.66628 138.5 4.22372 139.53 4.75479 139.433C13.1634 138.339 -5.33558 127.589 3.95818 126.366C4.48925 126.302 4.40074 127.268 4.75479 127.203C14.0485 125.98 -3.91938 115.166 3.95818 114.137C4.40074 114.072 4.1352 115.07 4.8433 114.973C13.1634 113.879 -5.42409 103.162 3.95818 101.907C4.57776 101.81 4.31223 102.808 4.8433 102.743C12.6324 101.713 -4.27343 90.771 3.95818 89.6767C4.48925 89.6123 4.22372 90.61 4.8433 90.5135C13.429 89.387 -2.23766 78.2514 3.95818 77.4468C4.57776 77.3824 4.22372 78.3801 4.8433 78.2836C12.8094 77.2215 -4.36194 66.3111 3.95818 65.2169C4.40074 65.1525 4.22372 66.1502 4.8433 66.0537C14.8452 64.7341 -4.8045 54.1456 3.95818 52.987C4.57776 52.8904 4.31223 53.9203 4.8433 53.8238C12.1013 52.8582 -3.12278 41.6904 3.95818 40.7249C4.57776 40.6283 4.1352 41.6582 4.8433 41.5617C12.1898 40.5962 -3.03427 29.3961 3.95818 28.4628C4.57776 28.3662 4.31223 29.3961 4.8433 29.3318C12.2783 28.3341 -5.77814 17.5203 3.95818 16.2329C4.40074 16.1685 4.31223 17.1662 4.8433 17.1019C13.8715 15.9111 -1.7951 4.7754 3.95818 4.00299C4.57776 3.93862 4.22372 4.93632 4.8433 4.87195" stroke="#7F7F81" stroke-linecap="round" stroke-linejoin="round"/>
</svg>
