<svg width="1206" height="364" viewBox="0 0 1206 364" fill="none" xmlns="http://www.w3.org/2000/svg">
<g filter="url(#filter0_d)">
<path d="M25 39.5453C25 36.0233 26.5599 32.5833 29.882 31.4136C35.5616 29.4137 45.8542 28.5863 58.9376 39.6549C75.9435 54.042 132.708 103.957 150.869 119.942C154.523 123.158 159.194 124.907 164.062 124.907H544.67L979.495 118.917H1053.38C1059.83 118.917 1065.87 115.824 1069.67 110.6C1081.75 93.966 1109.51 56.2879 1128.96 33.9934C1143.59 17.2308 1158.55 19.6906 1168.65 24.8405C1177.51 29.3535 1181 39.4984 1181 49.4363V335H63C42.0132 335 25 317.987 25 297V39.5453Z" fill="#34E8C9"/>
</g>
<defs>
<filter id="filter0_d" x="0" y="0" width="1206" height="364" filterUnits="userSpaceOnUse" color-interpolation-filters="sRGB">
<feFlood flood-opacity="0" result="BackgroundImageFix"/>
<feColorMatrix in="SourceAlpha" type="matrix" values="0 0 0 0 0 0 0 0 0 0 0 0 0 0 0 0 0 0 127 0"/>
<feOffset dy="4"/>
<feGaussianBlur stdDeviation="12.5"/>
<feColorMatrix type="matrix" values="0 0 0 0 0 0 0 0 0 0 0 0 0 0 0 0 0 0 0.1 0"/>
<feBlend mode="normal" in2="BackgroundImageFix" result="effect1_dropShadow"/>
<feBlend mode="normal" in="SourceGraphic" in2="effect1_dropShadow" result="shape"/>
</filter>
</defs>
</svg>
