<svg width="32" height="32" viewBox="0 0 32 32" fill="none" xmlns="http://www.w3.org/2000/svg">
<circle cx="16" cy="16" r="16" fill="#FFD8D8"/>
<path fill-rule="evenodd" clip-rule="evenodd" d="M14.5205 8.76752C13.4778 8.76752 12.6325 9.62659 12.6325 10.6863C12.6325 11.746 13.4778 12.6051 14.5205 12.6051C15.5632 12.6051 16.4085 11.746 16.4085 10.6863C16.4085 9.62659 15.5632 8.76752 14.5205 8.76752ZM11.8772 10.6863C11.8772 9.2027 13.0607 8 14.5205 8C15.9803 8 17.1637 9.2027 17.1637 10.6863C17.1637 12.1699 15.9803 13.3726 14.5205 13.3726C13.0607 13.3726 11.8772 12.1699 11.8772 10.6863ZM20.2606 14.0746C20.1228 13.8568 19.8168 13.8373 19.6533 14.0359L15.7811 18.7411C15.7137 18.8231 15.6157 18.8727 15.5107 18.8782C15.4058 18.8836 15.3033 18.8444 15.228 18.7699L12.6425 16.2108C12.4733 16.0433 12.1959 16.0731 12.0649 16.2729L8.82053 21.2187C8.65324 21.4737 8.83313 21.8153 9.13472 21.8153H24.4653C24.7641 21.8153 24.9445 21.4795 24.783 21.2241L20.2606 14.0746ZM19.074 13.5435C19.5643 12.9477 20.4826 13.0062 20.8959 13.6596L25.4182 20.809C25.9029 21.5752 25.3616 22.5829 24.4653 22.5829H9.13472C8.22995 22.5829 7.69028 21.5581 8.19216 20.793L11.4365 15.8471C11.8297 15.2478 12.6617 15.1584 13.1694 15.661L15.4631 17.9312L19.074 13.5435Z" fill="#283071"/>
</svg>
