<svg width="1262" height="702" viewBox="0 0 1262 702" fill="none" xmlns="http://www.w3.org/2000/svg">
<g filter="url(#filter0_d)">
<path d="M58 522.063V104C58 70.8629 84.8629 44 118 44H1155C1188.14 44 1215 70.8629 1215 104V362.525C1215 392.139 1193.39 417.324 1164.12 421.827L127.123 581.366C90.7779 586.957 58 558.836 58 522.063Z" fill="white"/>
</g>
<path opacity="0.9" fill-rule="evenodd" clip-rule="evenodd" d="M61 535C55.9135 511.651 75.4575 502.612 94.2488 499.217C112.132 495.986 128.907 485.448 135.161 468.385C150.779 425.772 175.307 369.664 208.976 349.12C251.208 323.352 307.822 353.538 351.852 334.764C395.882 315.99 427.326 248.257 471.356 229.483C515.386 210.709 572 240.895 625.019 257.092C678.038 273.29 727.461 275.499 766.097 235.742C804.734 195.985 832.583 114.263 873.017 81.5003C913.451 48.7378 966.47 64.9351 1023.08 95.1211C1079.7 125.307 1139.91 169.482 1170.01 191.569C1185.37 201.145 1213.17 250.788 1214.2 268.854C1214.56 275.113 1214.99 282.132 1215.5 290C1219.83 356.597 1214.23 378.471 1211.66 384.751C1211.02 386.323 1210.04 387.725 1209.1 389.136C1191.37 415.627 1169.65 427.468 1125 438.943C1079.17 450.723 1045.5 431.443 997 438.943C951.173 450.723 856.828 427.164 811 438.943C765.173 450.723 717.59 427.164 671.763 438.943C625.935 450.723 612.828 499.72 567 511.5C521.173 523.28 462 529.5 418.5 536C369 543.397 315 552.5 261.5 560C212.605 570.067 170.065 574.075 146.445 579.579C144.471 580.039 142.488 580.4 140.472 580.602L116.5 583C105.353 584.803 70.3147 577.758 61 535Z" fill="#F7F6F6"/>
<defs>
<filter id="filter0_d" x="28" y="18" width="1217" height="598.076" filterUnits="userSpaceOnUse" color-interpolation-filters="sRGB">
<feFlood flood-opacity="0" result="BackgroundImageFix"/>
<feColorMatrix in="SourceAlpha" type="matrix" values="0 0 0 0 0 0 0 0 0 0 0 0 0 0 0 0 0 0 127 0"/>
<feOffset dy="4"/>
<feGaussianBlur stdDeviation="15"/>
<feColorMatrix type="matrix" values="0 0 0 0 0 0 0 0 0 0 0 0 0 0 0 0 0 0 0.08 0"/>
<feBlend mode="normal" in2="BackgroundImageFix" result="effect1_dropShadow"/>
<feBlend mode="normal" in="SourceGraphic" in2="effect1_dropShadow" result="shape"/>
</filter>
</defs>
</svg>
