<svg width="15" height="17" viewBox="0 0 15 17" fill="none" xmlns="http://www.w3.org/2000/svg">
<path d="M6.1761 15.0999L6.17607 15.0999C5.99912 14.9187 5.90641 14.6715 5.92059 14.4187L5.9209 14.4131H5.82074L5.92074 14.4131V14.4131V14.4131V14.413V14.413V14.413V14.413V14.413V14.413V14.413V14.413V14.413V14.413V14.413V14.4129V14.4129V14.4129V14.4129V14.4129V14.4129V14.4129V14.4129V14.4129V14.4129V14.4129V14.4129V14.4128V14.4128V14.4128V14.4128V14.4128V14.4128V14.4128V14.4128V14.4128V14.4128V14.4128V14.4128V14.4128V14.4127V14.4127V14.4127V14.4127V14.4127V14.4127V14.4127V14.4127V14.4127V14.4127V14.4127V14.4127V14.4126V14.4126V14.4126V14.4126V14.4126V14.4126V14.4126V14.4126V14.4126V14.4126V14.4126V14.4126V14.4125V14.4125V14.4125V14.4125V14.4125V14.4125V14.4125V14.4125V14.4125V14.4125V14.4125V14.4125V14.4125V14.4124V14.4124V14.4124V14.4124V14.4124V14.4124V14.4124V14.4124V14.4124V14.4124V14.4124V14.4124V14.4123V14.4123V14.4123V14.4123V14.4123V14.4123V14.4123V14.4123V14.4123V14.4123V14.4123V14.4123V14.4122V14.4122V14.4122V14.4122V14.4122V14.4122V14.4122V14.4122V14.4122L6.1761 15.0999ZM6.1761 15.0999L6.17804 15.102M6.1761 15.0999L6.17804 15.102M6.17804 15.102C6.36868 15.3087 6.63642 15.4272 6.91756 15.4293M6.17804 15.102L6.91756 15.4293M6.91756 15.4293C7.47868 15.4198 7.93394 14.9722 7.95311 14.4114C7.95247 13.8509 7.49803 13.3967 6.93734 13.3964C6.37613 13.3962 5.921 13.851 5.92074 14.4122L6.91756 15.4293ZM12.9351 12.905H12.934L14.4097 11.2727C14.4306 12.0978 13.7787 12.7837 12.9536 12.8047L12.9563 12.9046L12.9561 12.9046L12.9351 12.905ZM14.5097 8.90787V11.2714L11.1919 12.4291L11.092 12.4245C11.092 12.4245 11.092 12.4244 11.092 12.4244C11.0924 12.4172 11.0929 12.4099 11.0936 12.4027V7.77273C11.0936 7.6413 11.1316 7.50734 11.2036 7.40354C11.2765 7.2987 11.3894 7.21868 11.5341 7.21868H11.8503V6.39169C11.8503 3.8871 9.8199 1.8567 7.31531 1.8567C4.81072 1.8567 2.78032 3.8871 2.78032 6.39169V7.21868H3.09653C3.24123 7.21868 3.35416 7.29868 3.42697 7.40353C3.49905 7.50732 3.53706 7.64128 3.53706 7.77273V12.4027C3.56075 12.6527 3.37898 12.876 3.12856 12.9028C3.1194 12.9038 3.11024 12.9045 3.1011 12.9049L3.1011 12.905H3.09653H2.8607C3.39424 13.5507 4.18299 13.9339 5.02211 13.9529C5.27466 12.9315 6.29081 12.2825 7.33128 12.4947C8.24426 12.6809 8.90251 13.4805 8.90989 14.4122L8.90987 14.414C8.89897 15.5063 8.01035 16.386 6.91803 16.3859L6.91642 16.3859C6.37649 16.3772 5.86183 16.1556 5.48441 15.7694L5.48439 15.7693C5.24756 15.5268 5.08603 15.2217 5.0182 14.8908C3.83564 14.8695 2.72667 14.3047 2.01396 13.3569L2.01387 13.357L2.01114 13.353L1.67858 12.8629C1.27428 12.8255 0.936716 12.6783 0.696893 12.4409C0.44681 12.1934 0.310156 11.8548 0.310156 11.4617V9.09696C0.310137 8.66755 0.469154 8.20193 0.741924 7.84237C1.00306 7.49815 1.3762 7.24207 1.82359 7.22023V6.39172C1.82359 3.35873 4.28228 0.9 7.31531 0.9C10.3483 0.9 12.807 3.35873 12.807 6.39172V7.21872H12.934C13.8303 7.21872 14.5097 8.01031 14.5097 8.90787ZM13.553 11.2774L13.5529 11.2775V11.2726V8.90783C13.5529 8.50979 13.2785 8.17542 12.934 8.17542H12.0503V11.9483H12.9328C13.2844 11.9391 13.5623 11.6469 13.5537 11.2952L13.553 11.2774ZM1.26686 11.4618C1.26686 11.6766 1.3662 11.7916 1.48916 11.8589C1.61946 11.9301 1.7799 11.9483 1.88575 11.9483H2.58032V8.17545H1.88575C1.72756 8.17545 1.57438 8.28821 1.45463 8.4767C1.33646 8.66271 1.26686 8.89966 1.26686 9.09703V11.4618Z" fill="#454546" stroke="#454546" stroke-width="0.2"/>
</svg>
